<svg class="svg-icon" style="width: 1em; height: 1em;vertical-align: middle;fill: #ff620f;overflow: hidden;" viewBox="0 0 1024 1024" version="1.1" xmlns="http://www.w3.org/2000/svg"><path d="M818.528 332c-4.704-56.576-14.176-103.712-33.152-122.592-61.6-70.72-492.768-75.424-540.128 0-14.208 18.848-23.68 66.016-28.448 122.592-18.944 0-33.152 18.848-33.152 37.728v70.72c0 14.144 9.472 28.288 23.68 32.992 0 113.152 0 226.304 4.736 287.584 0 42.432 33.184 32.992 33.184 32.992h28.416v51.872c0 18.88 18.944 32.992 42.656 32.992s42.656-14.112 42.656-32.992v-51.872h331.68v51.872c0 18.88 18.944 32.992 42.624 32.992s47.36-14.112 47.36-32.992v-51.872h4.736s37.92 4.704 37.92-14.112c0-56.608 4.736-183.872 4.736-306.464 14.176-4.704 23.68-18.848 23.68-32.992v-70.72c0-18.848-14.208-37.728-33.184-37.728zM349.472 223.584h331.648V270.72H349.472V223.584z m4.736 513.92c-23.68 0-47.36-18.88-47.36-47.168 0-23.552 23.68-47.168 47.36-47.168 28.448 0 47.392 23.584 47.392 47.168 0 28.288-18.944 47.168-47.392 47.168z m326.912 0c-28.416 0-47.36-18.88-47.36-47.168 0-23.552 18.976-47.168 47.36-47.168 23.712 0 47.392 23.584 47.392 47.168 0.032 28.288-23.68 47.168-47.392 47.168z m56.896-202.752H292.64V299.008h445.376v235.744z"  /></svg>